<svg width="381" height="232" viewBox="0 0 381 232" fill="none" xmlns="http://www.w3.org/2000/svg">
<rect width="381" height="232" fill="black"/>
<path d="M94.8377 167C92.2792 167 91 165.785 91 163.356V75.6437C91 73.2146 92.2792 72 94.8377 72H111.186C113.131 72 115.028 73.3501 116 76L138 135.4C140.251 141.494 141.591 145.182 142 146.463C142.409 147.7 142.732 148.643 143.5 152C144.268 148.643 144.591 147.7 145 146.463C145.409 145.182 146.749 141.494 149 135.4L171 76C171.972 73.3501 173.869 72 175.814 72H192.162C194.721 72 196 73.2146 196 75.6437V163.356C196 165.785 194.721 167 192.162 167H185.101C182.542 167 181 165.929 181 163.5L181.11 94C181.11 92.2334 181.007 90.3287 181.11 88.5621L152.787 162.959C151.764 165.653 150.075 167 147.721 167H139.279C136.925 167 135.236 165.653 134.213 162.959L105.89 88.5621C105.993 90.3287 106 92.2334 106 94V163.356C106 165.785 104.458 167 101.899 167H94.8377Z" fill="white"/>
<path d="M179.165 163.298V99.3846L154.699 163.638C154.099 165.217 153.238 166.577 152.026 167.544C150.785 168.533 149.313 169 147.718 169H139.282C137.687 169 136.215 168.533 134.974 167.544C133.762 166.577 132.901 165.217 132.301 163.638L107.835 99.3846V163.298C107.835 164.859 107.417 166.401 106.232 167.526C105.069 168.63 103.511 169 101.944 169H94.8906C93.3231 169 91.7642 168.63 90.6007 167.526C89.4163 166.401 89 164.858 89 163.298V75.7021C89 74.1415 89.4163 72.5988 90.6007 71.4744C91.7642 70.37 93.3231 70 94.8906 70V72.0625L94.4267 72.0766C92.18 72.2185 91.0566 73.4275 91.0566 75.7021V163.298C91.0566 165.572 92.18 166.781 94.4267 166.923L94.8906 166.938H101.944L102.408 166.923C104.505 166.791 105.622 165.729 105.762 163.739L105.778 163.298V93.896C105.778 92.1317 105.726 90.3671 105.624 88.6028H105.931L134.223 162.901C135.182 165.424 136.724 166.764 138.851 166.921L139.282 166.938H147.718L148.149 166.921C150.276 166.764 151.818 165.424 152.777 162.901L181.069 88.6028H181.376C181.274 90.3671 181.222 92.1317 181.222 93.896V163.298C181.222 165.572 182.346 166.781 184.592 166.923L185.056 166.938H192.109L192.573 166.923C194.67 166.791 195.79 165.729 195.929 163.739L195.943 163.298V75.7021C195.943 73.2762 194.665 72.0625 192.109 72.0625V70C193.677 70 195.236 70.37 196.399 71.4744C197.584 72.5988 198 74.1415 198 75.7021V163.298C198 164.858 197.584 166.401 196.399 167.526C195.236 168.63 193.677 169 192.109 169H185.056C183.489 169 181.931 168.63 180.768 167.526C179.583 166.401 179.165 164.859 179.165 163.298ZM175.779 72.0625L175.42 72.0786C173.656 72.234 172.319 73.5517 171.409 76.0324L149.481 135.38L146.798 142.705C146.133 144.547 145.699 145.787 145.494 146.427C145.085 147.662 144.498 149.956 143.731 153.308H143.269C142.502 149.956 141.915 147.662 141.506 146.427C141.301 145.787 140.867 144.547 140.202 142.705L137.519 135.38L115.591 76.0324C114.62 73.386 113.163 72.0625 111.221 72.0625V70C112.709 70 114.05 70.5261 115.151 71.5267C116.208 72.4864 116.965 73.8075 117.519 75.3154L139.449 134.663C141.69 140.727 143.039 144.465 143.466 145.799H143.464C143.476 145.837 143.487 145.876 143.5 145.916C143.513 145.876 143.522 145.837 143.534 145.799L144.028 144.349C144.693 142.451 145.87 139.211 147.551 134.663L169.481 75.3154C170.035 73.8075 170.792 72.4864 171.849 71.5267C172.95 70.5261 174.291 70 175.779 70V72.0625ZM192.109 70V72.0625H175.779V70H192.109ZM111.221 70V72.0625H94.8906V70H111.221Z" fill="white"/>
<path d="M279.246 118.5C279.246 99.9622 264.361 84.9344 246 84.9344C227.639 84.9344 212.754 99.9622 212.754 118.5C212.754 137.038 227.639 152.066 246 152.066C264.361 152.066 279.246 137.038 279.246 118.5ZM298 118.5C298 147.495 274.719 171 246 171C217.281 171 194 147.495 194 118.5C194 89.5051 217.281 66 246 66C274.719 66 298 89.5051 298 118.5Z" fill="white"/>
<path d="M298.842 118.5C298.842 89.5923 275.408 66.1579 246.5 66.1579C217.592 66.1579 194.158 89.5923 194.158 118.5C194.158 147.408 217.592 170.842 246.5 170.842C275.408 170.842 298.842 147.408 298.842 118.5ZM273.808 118.5C273.808 103.419 261.581 91.1924 246.5 91.1924C231.419 91.1924 219.192 103.419 219.192 118.5C219.192 133.581 231.419 145.808 246.5 145.808V151.966L245.636 151.953C227.553 151.495 213.034 136.693 213.034 118.5C213.034 100.018 228.018 85.0345 246.5 85.0345C264.982 85.0345 279.966 100.018 279.966 118.5L279.953 119.364C279.495 137.447 264.693 151.966 246.5 151.966V145.808C261.581 145.808 273.808 133.581 273.808 118.5ZM305 118.5C305 150.809 278.809 177 246.5 177C214.191 177 188 150.809 188 118.5C188 86.1913 214.191 60 246.5 60C278.809 60 305 86.1913 305 118.5Z" fill="black"/>
</svg>
